<svg xmlns="http://www.w3.org/2000/svg" xmlns:xlink="http://www.w3.org/1999/xlink" width="64" zoomAndPan="magnify" viewBox="0 0 48 48" height="64" preserveAspectRatio="xMidYMid meet" version="1.0"><defs><clipPath id="7fbdf72e35"><path d="M 0.488281 0 L 47.507812 0 L 47.507812 47.019531 L 0.488281 47.019531 Z M 0.488281 0 " clip-rule="nonzero"/></clipPath><clipPath id="b8e61c9411"><path d="M 21.902344 23.882812 L 27.761719 23.882812 L 27.761719 35.601562 L 21.902344 35.601562 Z M 21.902344 23.882812 " clip-rule="nonzero"/></clipPath><clipPath id="a8e94b462b"><path d="M 27.707031 32.648438 L 27.707031 26.859375 C 27.707031 25.261719 26.410156 23.964844 24.8125 23.964844 C 23.214844 23.964844 21.917969 25.261719 21.917969 26.859375 L 21.917969 32.648438 C 21.917969 34.25 23.214844 35.542969 24.8125 35.542969 C 26.410156 35.542969 27.707031 34.25 27.707031 32.648438 " clip-rule="nonzero"/></clipPath><clipPath id="ce8c45f5cb"><path d="M 0.902344 0.882812 L 6.761719 0.882812 L 6.761719 12.601562 L 0.902344 12.601562 Z M 0.902344 0.882812 " clip-rule="nonzero"/></clipPath><clipPath id="0d573680d2"><path d="M 6.707031 9.648438 L 6.707031 3.859375 C 6.707031 2.261719 5.410156 0.964844 3.8125 0.964844 C 2.214844 0.964844 0.917969 2.261719 0.917969 3.859375 L 0.917969 9.648438 C 0.917969 11.25 2.214844 12.542969 3.8125 12.542969 C 5.410156 12.542969 6.707031 11.25 6.707031 9.648438 " clip-rule="nonzero"/></clipPath><clipPath id="8d0343a160"><rect x="0" width="7" y="0" height="13"/></clipPath><clipPath id="cb3998e8ab"><path d="M 14.117188 12.339844 L 34.757812 12.339844 L 34.757812 35.601562 L 14.117188 35.601562 Z M 14.117188 12.339844 " clip-rule="nonzero"/></clipPath><clipPath id="2e0f24e292"><path d="M 34.746094 12.382812 L 19.953125 12.382812 C 16.753906 12.382812 14.160156 14.976562 14.160156 18.175781 L 14.160156 35.542969 L 16.667969 35.542969 C 18.480469 35.542969 19.953125 34.074219 19.953125 32.257812 L 19.953125 20.605469 C 19.953125 19.261719 21.042969 18.175781 22.382812 18.175781 L 31.460938 18.175781 C 33.273438 18.175781 34.746094 16.703125 34.746094 14.890625 Z M 34.746094 12.382812 " clip-rule="nonzero"/></clipPath><clipPath id="59ac58a004"><path d="M 0.125 0.339844 L 20.757812 0.339844 L 20.757812 23.601562 L 0.125 23.601562 Z M 0.125 0.339844 " clip-rule="nonzero"/></clipPath><clipPath id="ea22e75876"><path d="M 20.746094 0.382812 L 5.953125 0.382812 C 2.753906 0.382812 0.160156 2.976562 0.160156 6.175781 L 0.160156 23.542969 L 2.667969 23.542969 C 4.480469 23.542969 5.953125 22.074219 5.953125 20.257812 L 5.953125 8.605469 C 5.953125 7.261719 7.042969 6.175781 8.382812 6.175781 L 17.460938 6.175781 C 19.273438 6.175781 20.746094 4.703125 20.746094 2.890625 Z M 20.746094 0.382812 " clip-rule="nonzero"/></clipPath><clipPath id="66c26b48bc"><rect x="0" width="21" y="0" height="24"/></clipPath><clipPath id="2ba3d96d8a"><path d="M 29 23.882812 L 34.757812 23.882812 L 34.757812 29.742188 L 29 29.742188 Z M 29 23.882812 " clip-rule="nonzero"/></clipPath><clipPath id="cbbf44f862"><path d="M 34.746094 26.832031 C 34.746094 28.417969 33.460938 29.699219 31.875 29.699219 C 30.292969 29.699219 29.007812 28.414062 29.007812 26.832031 C 29.007812 25.25 30.292969 23.964844 31.875 23.964844 C 33.460938 23.964844 34.746094 25.25 34.746094 26.832031 " clip-rule="nonzero"/></clipPath><clipPath id="c4e83a3b9d"><path d="M 0 0.882812 L 5.757812 0.882812 L 5.757812 6.742188 L 0 6.742188 Z M 0 0.882812 " clip-rule="nonzero"/></clipPath><clipPath id="d9013ffb92"><path d="M 5.746094 3.832031 C 5.746094 5.417969 4.460938 6.699219 2.875 6.699219 C 1.292969 6.699219 0.0078125 5.414062 0.0078125 3.832031 C 0.0078125 2.25 1.292969 0.964844 2.875 0.964844 C 4.460938 0.964844 5.746094 2.25 5.746094 3.832031 " clip-rule="nonzero"/></clipPath><clipPath id="65cced5722"><rect x="0" width="6" y="0" height="7"/></clipPath><clipPath id="17eb608184"><path d="M 13.242188 11.464844 L 17.878906 11.464844 L 17.878906 16.101562 L 13.242188 16.101562 Z M 13.242188 11.464844 " clip-rule="nonzero"/></clipPath><clipPath id="af0582b0cf"><path d="M 17.816406 11.476562 L 13.253906 11.476562 L 13.253906 16.035156 C 13.691406 13.730469 15.507812 11.914062 17.816406 11.476562 " clip-rule="nonzero"/></clipPath><clipPath id="d35248a789"><path d="M 0.242188 0.464844 L 4.878906 0.464844 L 4.878906 5.101562 L 0.242188 5.101562 Z M 0.242188 0.464844 " clip-rule="nonzero"/></clipPath><clipPath id="e5daa025a3"><path d="M 4.816406 0.476562 L 0.253906 0.476562 L 0.253906 5.035156 C 0.691406 2.730469 2.507812 0.914062 4.816406 0.476562 " clip-rule="nonzero"/></clipPath><clipPath id="b37deb5cc5"><rect x="0" width="5" y="0" height="6"/></clipPath></defs><g clip-path="url(#7fbdf72e35)"><path fill="#ffffff" d="M 0.488281 0 L 47.511719 0 L 47.511719 47.019531 L 0.488281 47.019531 Z M 0.488281 0 " fill-opacity="1" fill-rule="nonzero"/><path fill="#dee2e4" d="M 0.488281 0 L 47.511719 0 L 47.511719 47.019531 L 0.488281 47.019531 Z M 0.488281 0 " fill-opacity="1" fill-rule="nonzero"/></g><g clip-path="url(#b8e61c9411)"><g clip-path="url(#a8e94b462b)"><g transform="matrix(1, 0, 0, 1, 21, 23)"><g clip-path="url(#8d0343a160)"><g clip-path="url(#ce8c45f5cb)"><g clip-path="url(#0d573680d2)"><path fill="#908e8e" d="M -8.195312 -11.972656 L 14.195312 -11.972656 L 14.195312 12.953125 L -8.195312 12.953125 Z M -8.195312 -11.972656 " fill-opacity="1" fill-rule="nonzero"/></g></g></g></g></g></g><g clip-path="url(#cb3998e8ab)"><g clip-path="url(#2e0f24e292)"><g transform="matrix(1, 0, 0, 1, 14, 12)"><g clip-path="url(#66c26b48bc)"><g clip-path="url(#59ac58a004)"><g clip-path="url(#ea22e75876)"><path fill="#353434" d="M -1.195312 -0.972656 L 21.195312 -0.972656 L 21.195312 23.953125 L -1.195312 23.953125 Z M -1.195312 -0.972656 " fill-opacity="1" fill-rule="nonzero"/></g></g></g></g></g></g><g clip-path="url(#2ba3d96d8a)"><g clip-path="url(#cbbf44f862)"><g transform="matrix(1, 0, 0, 1, 29, 23)"><g clip-path="url(#65cced5722)"><g clip-path="url(#c4e83a3b9d)"><g clip-path="url(#d9013ffb92)"><rect x="-39.56" width="69.12" fill="#353434" height="69.120001" y="-33.56" fill-opacity="1"/></g></g></g></g></g></g><g clip-path="url(#17eb608184)"><g clip-path="url(#af0582b0cf)"><g transform="matrix(1, 0, 0, 1, 13, 11)"><g clip-path="url(#b37deb5cc5)"><g clip-path="url(#d35248a789)"><g clip-path="url(#e5daa025a3)"><path fill="#ff751f" d="M -0.195312 0.0273438 L 22.195312 0.0273438 L 22.195312 24.953125 L -0.195312 24.953125 Z M -0.195312 0.0273438 " fill-opacity="1" fill-rule="nonzero"/></g></g></g></g></g></g></svg>